<svg width="12" height="16" fill="none" xmlns="http://www.w3.org/2000/svg"><path d="M10.211 5.728h-.729V4.269A3.648 3.648 0 0 0 5.836.623 3.648 3.648 0 0 0 2.19 4.269v1.459h-.73c-.802 0-1.458.656-1.458 1.458v7.293c0 .802.656 1.458 1.458 1.458h8.751c.803 0 1.459-.656 1.459-1.458V7.186c0-.802-.656-1.458-1.459-1.458ZM5.836 12.29a1.463 1.463 0 0 1-1.459-1.458c0-.803.657-1.459 1.459-1.459s1.458.656 1.458 1.459c0 .802-.656 1.458-1.458 1.458ZM3.648 5.728V4.269c0-1.21.977-2.187 2.188-2.187 1.21 0 2.188.977 2.188 2.187v1.459H3.648Z" fill="#fff"/></svg>