<svg width="16" height="11" fill="none" xmlns="http://www.w3.org/2000/svg"><path d="M8.1684.5684C4.714.5684 1.764 2.717.5688 5.7499c1.1952 3.0328 4.1453 5.1814 7.5996 5.1814s6.4043-2.1486 7.5995-5.1814C14.5727 2.7169 11.6227.5684 8.1684.5684Zm0 8.6358c-1.9068 0-3.4543-1.5475-3.4543-3.4543 0-1.9068 1.5475-3.4544 3.4543-3.4544 1.9067 0 3.4543 1.5476 3.4543 3.4544s-1.5476 3.4543-3.4543 3.4543Zm0-5.527c-1.1469 0-2.0726.9258-2.0726 2.0727 0 1.1468.9257 2.0725 2.0726 2.0725S10.241 6.8967 10.241 5.75c0-1.1469-.9257-2.0726-2.0726-2.0726Z" fill="#000" fill-opacity=".7"/></svg>