<svg width="19" height="19" fill="none" xmlns="http://www.w3.org/2000/svg"><g fill="#000"><path d="M9.08 4.842c-2.541 0-4.646 2.069-4.646 4.646a4.631 4.631 0 0 0 4.645 4.645c2.577 0 4.646-2.105 4.646-4.645 0-2.54-2.105-4.646-4.646-4.646Zm0 7.621a2.99 2.99 0 0 1-2.976-2.975 2.99 2.99 0 0 1 2.975-2.976 2.99 2.99 0 0 1 2.976 2.976 2.99 2.99 0 0 1-2.976 2.975ZM13.906 5.786a1.052 1.052 0 1 0 0-2.105 1.052 1.052 0 0 0 0 2.105Z"/><path d="M16.628 2.012c-.944-.98-2.287-1.488-3.81-1.488H5.34C2.184.524.08 2.629.08 5.786v7.44c0 1.56.508 2.903 1.525 3.882.98.944 2.286 1.416 3.774 1.416h7.403c1.56 0 2.867-.508 3.81-1.416.98-.943 1.488-2.286 1.488-3.846V5.786c0-1.524-.508-2.83-1.451-3.774Zm-.218 11.25c0 1.125-.327 2.032-.98 2.649s-1.56.944-2.649.944H5.378c-1.089 0-1.996-.327-2.65-.944-.653-.653-.98-1.56-.98-2.686v-7.44c0-1.088.327-1.995.98-2.648.617-.617 1.561-.944 2.65-.944h7.476c1.088 0 1.996.327 2.649.98.617.653.98 1.56.98 2.613v7.476h-.073Z"/></g></svg>